<?xml version="1.0" encoding="UTF-8" standalone="no"?>
<svg width="24px" height="24px" viewBox="0 0 24 24" version="1.1" xmlns="http://www.w3.org/2000/svg" xmlns:xlink="http://www.w3.org/1999/xlink">
    <!-- Generator: Sketch 40.3 (33839) - http://www.bohemiancoding.com/sketch -->
    <title>black/cal_dia_bk</title>
    <desc>Created with Sketch.</desc>
    <defs></defs>
    <g id="Ãcones" stroke="none" stroke-width="1" fill="none" fill-rule="evenodd">
        <g id="black/cal_dia_bk" fill="#000000">
            <path d="M17,13 L12,13 L12,18 L17,18 L17,13 L17,13 Z M16,2 L16,4 L8,4 L8,2 L6,2 L6,4 L5,4 C3.89,4 3.01,4.9 3.01,6 L3,20 C3,21.1 3.89,22 5,22 L19,22 C20.1,22 21,21.1 21,20 L21,6 C21,4.9 20.1,4 19,4 L18,4 L18,2 L16,2 L16,2 Z M5,20 L5,9 L19,9 L19,20 L5,20 Z" id="Shape"></path>
        </g>
    </g>
</svg>