<?xml version="1.0" encoding="UTF-8" standalone="no"?>
<svg width="24px" height="24px" viewBox="0 0 24 24" version="1.1" xmlns="http://www.w3.org/2000/svg" xmlns:xlink="http://www.w3.org/1999/xlink">
    <!-- Generator: Sketch 40.3 (33839) - http://www.bohemiancoding.com/sketch -->
    <title>black/cal_mes_bk</title>
    <desc>Created with Sketch.</desc>
    <defs></defs>
    <g id="Ãcones" stroke="none" stroke-width="1" fill="none" fill-rule="evenodd">
        <g id="black/cal_mes_bk" fill="#000000">
            <path d="M19,4 L18,4 L18,2 L16,2 L16,4 L8,4 L8,2 L6,2 L6,4 L5,4 C3.9,4 3,4.9 3,6 L3,20 C3,21.1 3.9,22 5,22 L19,22 C20.1,22 21,21.1 21,20 L21,6 C21,4.9 20.1,4 19,4 Z M19,20 L5,20 L5,9 L19,9 L19,20 Z M16,17 L16,19 L18,19 L18,17 L16,17 Z M16,14 L16,16 L18,16 L18,14 L16,14 Z M16,11 L16,13 L18,13 L18,11 L16,11 Z M13,17 L13,19 L15,19 L15,17 L13,17 Z M13,14 L13,16 L15,16 L15,14 L13,14 Z M13,11 L13,13 L15,13 L15,11 L13,11 Z M10,17 L10,19 L12,19 L12,17 L10,17 Z M10,14 L10,16 L12,16 L12,14 L10,14 Z M10,11 L10,13 L12,13 L12,11 L10,11 Z M7,17 L7,19 L9,19 L9,17 L7,17 Z M7,14 L7,16 L9,16 L9,14 L7,14 Z M7,11 L7,13 L9,13 L9,11 L7,11 Z" id="Combined-Shape"></path>
        </g>
    </g>
</svg>