<?xml version="1.0" encoding="UTF-8" standalone="no"?>
<svg width="24px" height="24px" viewBox="0 0 24 24" version="1.1" xmlns="http://www.w3.org/2000/svg" xmlns:xlink="http://www.w3.org/1999/xlink">
    <!-- Generator: Sketch 40.3 (33839) - http://www.bohemiancoding.com/sketch -->
    <title>black/cal_ano_bk</title>
    <desc>Created with Sketch.</desc>
    <defs></defs>
    <g id="Ãcones" stroke="none" stroke-width="1" fill="none" fill-rule="evenodd">
        <g id="black/cal_ano_bk" fill="#000000">
            <path d="M3.99973816,4.26999998 C3.40205439,4.61457064 3,5.26016651 3,5.9997559 L3,20.0095773 C3,21.1120438 3.89299802,22.0046666 4.99456689,22.0046666 L19.0007199,22.0046666 C19.7404127,22.0046666 20.3856165,21.602354 20.7299995,21.0046666 L5.99001202,21.0046666 C4.89081412,21.0046666 3.99973816,20.1064542 3.99973816,19.0138715 L3.99973816,4.26999998 Z M2,6.26999998 C1.4021597,6.61457064 1,7.26016651 1,7.9997559 L1,22.0095773 C1,23.1120438 1.8932319,24.0046666 2.99508929,24.0046666 L17.0049107,24.0046666 C17.7447973,24.0046666 18.39017,23.602354 18.7346432,23.0046666 L3.99079514,23.0046666 C2.89130934,23.0046666 2,22.1064542 2,21.0138715 L2,6.26999998 Z M20,2 L20,0 L18,0 L18,2 L10,2 L10,0 L8,0 L8,2 L7,2 C5.9,2 5,2.9 5,4 L5,18 C5,19.1 5.9,20 7,20 L21,20 C22.1,20 23,19.1 23,18 L23,4 C23,2.9 22.1,2 21,2 L20,2 Z M21,18 L7,18 L7,7 L21,7 L21,18 Z M18,15 L18,17 L20,17 L20,15 L18,15 Z M18,12 L18,14 L20,14 L20,12 L18,12 Z M18,9 L18,11 L20,11 L20,9 L18,9 Z M15,15 L15,17 L17,17 L17,15 L15,15 Z M15,12 L15,14 L17,14 L17,12 L15,12 Z M15,9 L15,11 L17,11 L17,9 L15,9 Z M12,15 L12,17 L14,17 L14,15 L12,15 Z M12,12 L12,14 L14,14 L14,12 L12,12 Z M12,9 L12,11 L14,11 L14,9 L12,9 Z M9,15 L9,17 L11,17 L11,15 L9,15 Z M9,12 L9,14 L11,14 L11,12 L9,12 Z M9,9 L9,11 L11,11 L11,9 L9,9 Z" id="Combined-Shape"></path>
        </g>
    </g>
</svg>