<?xml version="1.0" encoding="UTF-8" standalone="no"?>
<svg width="24px" height="24px" viewBox="0 0 24 24" version="1.1" xmlns="http://www.w3.org/2000/svg" xmlns:xlink="http://www.w3.org/1999/xlink">
    <!-- Generator: Sketch 40.3 (33839) - http://www.bohemiancoding.com/sketch -->
    <title>black/login_senha_bk</title>
    <desc>Created with Sketch.</desc>
    <defs></defs>
    <g id="Ãcones" stroke="none" stroke-width="1" fill="none" fill-rule="evenodd">
        <g id="black/login_senha_bk" fill="#000000">
            <path d="M14,17 L11.3456396,14.3456396 C10.4861935,14.7647969 9.52056408,15 8.5,15 C4.91014913,15 2,12.0898509 2,8.5 C2,4.91014913 4.91014913,2 8.5,2 C12.0898509,2 15,4.91014913 15,8.5 C15,9.52056408 14.7647969,10.4861935 14.3456396,11.3456396 L22,19 L22,22 L19,22 L18,21 L18,19 L16,19 L16,17 L14,17 Z M7,9 C8.1045695,9 9,8.1045695 9,7 C9,5.8954305 8.1045695,5 7,5 C5.8954305,5 5,5.8954305 5,7 C5,8.1045695 5.8954305,9 7,9 Z" id="Combined-Shape"></path>
        </g>
    </g>
</svg>